<?xml version="1.0" encoding="UTF-8"?>
<svg width="109px" height="30px" viewBox="0 0 109 30" version="1.1" xmlns="http://www.w3.org/2000/svg" xmlns:xlink="http://www.w3.org/1999/xlink">
    <title>logo</title>
    <g id="投票上币" stroke="none" stroke-width="1" fill="none" fill-rule="evenodd">
        <g id="币种上线--上币弹窗" transform="translate(-116.000000, -442.000000)" fill="#FFBE40">
            <g id="logo" transform="translate(116.941638, 442.000000)">
                <path d="M15.0961233,2.22537548 C8.01404297,2.22537548 2.23650141,7.95031436 2.23650141,15 C2.23650141,22.0496856 7.99706019,27.7746245 15.0961233,27.7746245 C22.1951863,27.7746245 27.9557451,22.0496856 27.9557451,15 C27.9557451,7.95031436 22.1951863,2.22537548 15.0961233,2.22537548 M15.0961233,30 C6.77717408,30 0,23.2727908 0,15 C0,6.72720922 6.77717408,0 15.0961233,0 C23.4150724,0 30.1919852,6.72720922 30.1919852,15 C30.1919852,23.2727908 23.4150724,30 15.0961233,30" id="Fill-1"></path>
                <path d="M15.6383181,12.9445075 L18.5523018,9.42817848 C19.0097917,8.86757772 18.6202329,8.01803178 17.891541,8.01803178 C17.6373219,8.01803178 17.383364,8.13696298 17.2310415,8.32400454 L14.5200674,11.5857056 L11.8093545,8.32400454 C11.639788,8.11993538 11.4025516,8.01803178 11.1483325,8.01803178 L8.91209234,8.01803178 C8.18340047,8.01803178 7.77685886,8.86757772 8.25133159,9.42817848 L12.283566,14.2865438 L7.13281961,20.5039731 C6.67532966,21.0645739 7.06514976,21.9138578 7.79384164,21.9138578 C8.04779951,21.9138578 8.30201865,21.7949267 8.45460239,21.608147 L13.4015554,15.6456078 L15.6383181,12.9445075 Z" id="Fill-3"></path>
                <path d="M22.3985094,8.01811037 C22.1442902,8.01811037 21.8903324,8.13704156 21.7377486,8.32382117 L16.8075171,14.2866224 L14.5707544,16.9874607 L11.6567708,20.5040517 C11.1992808,21.0646525 11.5888397,21.9139364 12.3175315,21.9139364 C12.5717507,21.9139364 12.8257085,21.7950052 12.978031,21.6082256 L15.6890052,18.3465246 L18.399718,21.6082256 C18.5692845,21.8120328 18.8065209,21.9139364 19.06074,21.9139364 L21.2969802,21.9139364 C22.0256721,21.9139364 22.4322137,21.0646525 21.9577409,20.5040517 L17.9255066,15.6454244 L23.0762529,9.42799511 C23.5337429,8.8676563 23.12694,8.01811037 22.3985094,8.01811037" id="Fill-5"></path>
                <path d="M57.3313551,19.0911544 C57.3313551,18.364993 57.918698,17.7758383 58.6432095,17.7758383 C59.367721,17.7758383 59.9550639,18.364993 59.9550639,19.0911544 C59.9550639,19.8175777 59.367721,20.4064705 58.6432095,20.4064705 C57.918698,20.4064705 57.3313551,19.8175777 57.3313551,19.0911544" id="Fill-7"></path>
                <path d="M73.4933176,8.84965945 L73.4933176,11.4551432 L69.4950487,11.4551432 C68.1458322,11.4551432 67.2128245,11.7558767 66.696548,12.3573437 C66.1967317,12.9252794 65.9469542,13.7936867 65.9469542,14.9625655 C65.9469542,16.2653074 66.3550635,17.2175428 67.171282,17.8187478 C67.5041445,18.0526808 67.8665308,18.2153598 68.2584411,18.3073088 C68.6495676,18.3995197 69.1951067,18.4451013 69.8950585,18.4451013 L73.4933176,18.4451013 L73.4933176,21.0505851 L68.920247,21.0505851 C67.6872972,21.0505851 66.7130082,20.9251048 65.9968575,20.6746682 C65.2801842,20.4242316 64.647641,19.9901589 64.0979214,19.3719263 C63.0481244,18.2035714 62.5237484,16.7164076 62.5237484,14.9125306 C62.5237484,12.7416434 63.1481922,11.1214024 64.3976022,10.0523315 C64.8974184,9.61825882 65.4973025,9.30914251 66.1967317,9.1252445 C66.8964222,8.94160845 67.8043477,8.84965945 68.920247,8.84965945 L73.4933176,8.84965945 Z" id="Fill-9"></path>
                <path d="M81.6887366,11.229855 C79.6730113,11.229855 78.6655406,12.4823 78.6655406,14.9877139 C78.6655406,16.0070119 78.8317106,16.7834701 79.1650956,17.3178746 C79.7145538,18.2195512 80.5642153,18.6706514 81.7140802,18.6706514 C83.6961011,18.6706514 84.6873729,17.4265892 84.6873729,14.937941 C84.6873729,12.4993276 83.6877404,11.2633863 81.6887366,11.229855 M81.6636544,8.67440622 C83.9129582,8.67440622 85.5699549,9.32564618 86.6364734,10.6283881 C87.6191232,11.8145564 88.1105787,13.3090552 88.1105787,15.1131942 C88.1105787,17.0171411 87.4942344,18.5370503 86.2615459,19.6726598 C85.1284026,20.7084614 83.5793119,21.2261002 81.6140124,21.2261002 C79.5813043,21.2261002 77.9906711,20.6413989 76.8413288,19.4719962 C75.7750716,18.4202148 75.2420736,16.883802 75.2420736,14.8624956 C75.2420736,13.1589504 75.7502506,11.739635 76.7660821,10.6035016 C77.8987028,9.33429095 79.5314011,8.69117185 81.6636544,8.67440622" id="Fill-11"></path>
                <path d="M90.5835065,8.84965945 L102.877471,8.84965945 C103.99337,8.84965945 104.843032,8.9334876 105.426456,9.10009605 C106.009357,9.26722843 106.500812,9.55957911 106.900561,9.97688613 C107.633433,10.7790168 108,11.881357 108,13.2844307 L108,21.0505851 L104.651518,21.0505851 L104.651518,13.8104523 C104.651518,13.2260129 104.626436,12.8168268 104.576794,12.5826319 C104.526891,12.3486989 104.40984,12.1401764 104.226949,11.9562784 C103.877104,11.6222756 103.352205,11.4551432 102.652515,11.4551432 L100.878467,11.4551432 L100.878467,21.0505851 L97.5302471,21.0505851 L97.5302471,11.4551432 L93.9319881,11.4551432 L93.9319881,21.0505851 L90.5835065,21.0505851 L90.5835065,8.84965945 Z" id="Fill-13"></path>
                <polygon id="Fill-15" points="38.2272436 14.9437565 33.4007377 8.69462976 37.2354493 8.69462976 40.1227831 12.8608889 43.2520561 8.69462976 47.0426125 8.69462976 42.0622165 14.9437565 47.0426125 21.3256986 43.3623136 21.3256986 40.1227831 16.9891635 36.9490935 21.3256986 33.2246394 21.3256986"></polygon>
                <polygon id="Fill-17" points="51.9349332 10.9480615 46.2898573 10.9480615 48.2478412 8.69465596 59.9351287 8.69465596 59.9351287 10.9480615 55.0647288 10.9480615 55.0647288 21.3257248 51.9349332 21.3257248"></polygon>
            </g>
        </g>
    </g>
</svg>